<mxfile host="app.diagrams.net" modified="2023-09-29T09:24:07.900Z" agent="Mozilla/5.0 (Macintosh; Intel Mac OS X 10_15_7) AppleWebKit/537.36 (KHTML, like Gecko) Chrome/117.0.0.0 Safari/537.36" version="21.7.5" etag="1l59OIZwVbHUTHwt9MSX" type="github">
  <diagram name="Page-1" id="RNli2Mya8rT7AHPWQZZM">
    <mxGraphModel>
      <root>
        <mxCell id="0" />
        <mxCell id="1" parent="0" />
      </root>
    </mxGraphModel>
  </diagram>
</mxfile>
